<svg width="103" height="32" viewBox="0 0 103 32" fill="none" xmlns="http://www.w3.org/2000/svg">
<rect y="4" width="32" height="24" rx="8" fill="#AF52DE"/>
<path d="M33 14.2679C34.3333 15.0377 34.3333 16.9622 33 17.732L9 31.5885C7.66667 32.3583 6 31.396 6 29.8564L6 2.14359C6 0.603993 7.66667 -0.358258 9 0.411542L33 14.2679Z" fill="#D9D9D9"/>
<path d="M41.3125 21.5V10.125H48.3906V11.3359H42.7891V15.0234H47.6719V16.2422H42.7891V20.2891H48.4688V21.5H41.3125ZM50.1484 21.5V13.3281H51.4375L51.4922 14.3828H51.5391C51.8307 14.013 52.1823 13.7188 52.5938 13.5C53.0052 13.2812 53.4635 13.1719 53.9688 13.1719C54.5156 13.1719 54.987 13.2812 55.3828 13.5C55.7839 13.7188 56.0885 14.0729 56.2969 14.5625H56.3359C56.6797 14.0729 57.0573 13.7188 57.4688 13.5C57.8854 13.2812 58.3646 13.1719 58.9062 13.1719C59.75 13.1719 60.4089 13.4062 60.8828 13.875C61.362 14.3438 61.6016 15.125 61.6016 16.2188V21.5H60.1719V16.2031C60.1719 15.5469 60.0312 15.0781 59.75 14.7969C59.474 14.5156 59.0781 14.375 58.5625 14.375C58.1146 14.375 57.7214 14.5 57.3828 14.75C57.0495 15 56.7839 15.3229 56.5859 15.7188V21.5H55.1641V16.2031C55.1641 15.5469 55.0234 15.0781 54.7422 14.7969C54.4609 14.5156 54.0625 14.375 53.5469 14.375C53.099 14.375 52.7057 14.5 52.3672 14.75C52.0339 15 51.7682 15.3229 51.5703 15.7188V21.5H50.1484ZM63.3281 17.5391V17.2891C63.3281 16.0547 63.6771 15.0495 64.375 14.2734C65.0729 13.4922 66.0052 13.1016 67.1719 13.1016C68.3385 13.1016 69.2708 13.4922 69.9688 14.2734C70.6667 15.0495 71.0156 16.0547 71.0156 17.2891V17.5391C71.0156 18.7734 70.6667 19.7812 69.9688 20.5625C69.2708 21.3438 68.3385 21.7344 67.1719 21.7344C66.0052 21.7344 65.0729 21.3438 64.375 20.5625C63.6771 19.7812 63.3281 18.7734 63.3281 17.5391ZM64.7812 17.2891V17.5391C64.7812 18.388 64.9818 19.1042 65.3828 19.6875C65.7839 20.2708 66.3802 20.5625 67.1719 20.5625C67.9635 20.5625 68.5573 20.2708 68.9531 19.6875C69.3542 19.1042 69.5547 18.388 69.5547 17.5391V17.2891C69.5547 16.4401 69.3542 15.724 68.9531 15.1406C68.5573 14.5573 67.9635 14.2656 67.1719 14.2656C66.3802 14.2656 65.7839 14.5573 65.3828 15.1406C64.9818 15.724 64.7812 16.4401 64.7812 17.2891ZM71.6719 14.4219V13.3281H76.3203V14.4219H71.6719ZM73.1328 19.4688V13.9844V13.7578V11.2656H74.5547V19.4688C74.5547 19.8438 74.6276 20.1094 74.7734 20.2656C74.9245 20.4219 75.1562 20.5 75.4688 20.5C75.6146 20.5 75.7552 20.487 75.8906 20.4609C76.0312 20.4297 76.1745 20.388 76.3203 20.3359V21.5C76.1849 21.5625 76.0104 21.6172 75.7969 21.6641C75.5833 21.7109 75.3464 21.7344 75.0859 21.7344C74.4922 21.7344 74.0182 21.5547 73.6641 21.1953C73.3099 20.8307 73.1328 20.2552 73.1328 19.4688ZM77.7734 18.6094V13.3281H79.1953V18.625C79.1953 19.2812 79.3411 19.7526 79.6328 20.0391C79.9297 20.3203 80.349 20.4609 80.8906 20.4609C81.3542 20.4609 81.7604 20.3359 82.1094 20.0859C82.4635 19.8307 82.7422 19.5052 82.9453 19.1094V13.3281H84.3672V21.5H83.0781L83.0156 20.4453H82.9766C82.6797 20.8203 82.3177 21.1172 81.8906 21.3359C81.4635 21.5495 80.9896 21.6562 80.4688 21.6562C79.6458 21.6562 78.9896 21.4219 78.5 20.9531C78.0156 20.4844 77.7734 19.7031 77.7734 18.6094ZM86.6641 21.5V9.53125H88.0859V14.2969C88.3255 13.9583 88.6458 13.6875 89.0469 13.4844C89.4531 13.276 89.9401 13.1719 90.5078 13.1719C91.5443 13.1719 92.3724 13.5599 92.9922 14.3359C93.612 15.112 93.9219 16.0964 93.9219 17.2891V17.5391C93.9219 18.7266 93.612 19.7109 92.9922 20.4922C92.3724 21.2682 91.5443 21.6562 90.5078 21.6562C89.9401 21.6562 89.4401 21.5391 89.0078 21.3047C88.5807 21.0651 88.263 20.776 88.0547 20.4375H88.0078L87.9531 21.5H86.6641ZM88.0859 19.0859C88.2474 19.4505 88.5104 19.776 88.875 20.0625C89.2396 20.3438 89.6823 20.4844 90.2031 20.4844C90.9844 20.4844 91.5547 20.2031 91.9141 19.6406C92.2786 19.0729 92.4609 18.3724 92.4609 17.5391V17.2891C92.4609 16.4557 92.2786 15.7578 91.9141 15.1953C91.5547 14.6276 90.9844 14.3438 90.2031 14.3438C89.6823 14.3438 89.2396 14.487 88.875 14.7734C88.5104 15.0547 88.2474 15.3776 88.0859 15.7422V19.0859ZM95.2344 17.5391V17.2891C95.2344 16.0547 95.5703 15.0495 96.2422 14.2734C96.9193 13.4922 97.8125 13.1016 98.9219 13.1016C100.031 13.1016 100.885 13.4661 101.484 14.1953C102.083 14.9193 102.383 15.9036 102.383 17.1484V17.7344H96.1016V16.5938H100.945V16.4141C100.945 15.8203 100.776 15.3151 100.438 14.8984C100.104 14.4766 99.6172 14.2656 98.9766 14.2656C98.2109 14.2656 97.638 14.5573 97.2578 15.1406C96.8776 15.724 96.6875 16.4401 96.6875 17.2891V17.5391C96.6875 18.388 96.888 19.1042 97.2891 19.6875C97.6901 20.2708 98.3099 20.5625 99.1484 20.5625C99.6693 20.5625 100.115 20.4505 100.484 20.2266C100.859 19.9974 101.164 19.7266 101.398 19.4141L102.32 20.1406C102.06 20.5312 101.659 20.8958 101.117 21.2344C100.581 21.5677 99.9245 21.7344 99.1484 21.7344C97.8828 21.7344 96.9141 21.3438 96.2422 20.5625C95.5703 19.7812 95.2344 18.7734 95.2344 17.5391Z" fill="white"/>
</svg>
